<svg width="32" height="32" viewBox="0 0 32 32" fill="none" xmlns="http://www.w3.org/2000/svg">
<g id="grid-01">
<g id="Vector">
<path d="M25.9557 3.19995C27.5267 3.19995 28.8002 4.45601 28.8002 6.00543L28.8002 10.7945C28.8002 12.344 27.5267 13.6 25.9558 13.6H21.6891C20.1181 13.6 18.8446 12.3439 18.8446 10.7945L18.8446 6.00543C18.8446 4.45601 20.1181 3.19995 21.6891 3.19995L25.9557 3.19995Z" stroke="white" stroke-width="2" stroke-linecap="round" stroke-linejoin="round"/>
<path d="M6.04464 3.19995C4.47369 3.19995 3.20019 4.45601 3.20019 6.00543L3.20021 10.7945C3.20021 12.344 4.47371 13.6 6.04465 13.6H10.3113C11.8823 13.6 13.1558 12.3439 13.1558 10.7945L13.1557 6.00543C13.1557 4.45601 11.8822 3.19995 10.3113 3.19995L6.04464 3.19995Z" stroke="white" stroke-width="2" stroke-linecap="round" stroke-linejoin="round"/>
<path d="M25.9558 18.4C27.5267 18.4 28.8002 19.6561 28.8002 21.2055V25.9945C28.8002 27.544 27.5267 28.8 25.9558 28.8H21.6891C20.1182 28.8 18.8447 27.5439 18.8447 25.9945L18.8446 21.2055C18.8446 19.6561 20.1182 18.4 21.6891 18.4H25.9558Z" stroke="white" stroke-width="2" stroke-linecap="round" stroke-linejoin="round"/>
<path d="M6.04465 18.4C4.47371 18.4 3.20021 19.6561 3.20021 21.2055L3.20021 25.9945C3.20021 27.544 4.47371 28.8 6.04465 28.8H10.3113C11.8823 28.8 13.1558 27.5439 13.1558 25.9945L13.1558 21.2055C13.1558 19.6561 11.8823 18.4 10.3113 18.4H6.04465Z" stroke="white" stroke-width="2" stroke-linecap="round" stroke-linejoin="round"/>
</g>
</g>
</svg>
