<svg width="20" height="20" viewBox="0 0 20 20" fill="none" xmlns="http://www.w3.org/2000/svg">
<g id="vuesax/bold/camera">
<g id="camera">
<path id="Vector" d="M15.0008 5.00033C14.4925 5.00033 14.0258 4.70866 13.7925 4.25866L13.1925 3.05033C12.8091 2.29199 11.8091 1.66699 10.9591 1.66699H9.05079C8.19246 1.66699 7.19246 2.29199 6.80912 3.05033L6.20912 4.25866C5.97579 4.70866 5.50912 5.00033 5.00079 5.00033C3.19246 5.00033 1.75912 6.52533 1.87579 8.32533L2.30912 15.2087C2.40912 16.9253 3.33412 18.3337 5.63412 18.3337H14.3675C16.6675 18.3337 17.5841 16.9253 17.6925 15.2087L18.1258 8.32533C18.2425 6.52533 16.8091 5.00033 15.0008 5.00033ZM8.75079 6.04199H11.2508C11.5925 6.04199 11.8758 6.32533 11.8758 6.66699C11.8758 7.00866 11.5925 7.29199 11.2508 7.29199H8.75079C8.40912 7.29199 8.12579 7.00866 8.12579 6.66699C8.12579 6.32533 8.40912 6.04199 8.75079 6.04199ZM10.0008 15.1003C8.45079 15.1003 7.18412 13.842 7.18412 12.2837C7.18412 10.7253 8.44246 9.46699 10.0008 9.46699C11.5591 9.46699 12.8175 10.7253 12.8175 12.2837C12.8175 13.842 11.5508 15.1003 10.0008 15.1003Z" fill="white"/>
</g>
</g>
</svg>
