<svg width="60" height="60" viewBox="0 0 60 60" fill="none" xmlns="http://www.w3.org/2000/svg">
<g id="Group 1597883132">
<circle id="Ellipse 457" cx="30" cy="30" r="30" fill="#374AF3"/>
<path id="Vector" d="M37.1986 22.8C36.4666 22.8 35.7946 22.38 35.4586 21.732L34.5946 19.992C34.0426 18.9 32.6026 18 31.3786 18H28.6306C27.3946 18 25.9546 18.9 25.4026 19.992L24.5386 21.732C24.2026 22.38 23.5306 22.8 22.7986 22.8C20.1946 22.8 18.1306 24.996 18.2986 27.588L18.9226 37.5C19.0666 39.972 20.3986 42 23.7106 42H36.2866C39.5986 42 40.9186 39.972 41.0746 37.5L41.6986 27.588C41.8666 24.996 39.8026 22.8 37.1986 22.8ZM28.1986 24.3H31.7986C32.2906 24.3 32.6986 24.708 32.6986 25.2C32.6986 25.692 32.2906 26.1 31.7986 26.1H28.1986C27.7066 26.1 27.2986 25.692 27.2986 25.2C27.2986 24.708 27.7066 24.3 28.1986 24.3ZM29.9986 37.344C27.7666 37.344 25.9426 35.532 25.9426 33.288C25.9426 31.044 27.7546 29.232 29.9986 29.232C32.2426 29.232 34.0546 31.044 34.0546 33.288C34.0546 35.532 32.2306 37.344 29.9986 37.344Z" fill="#E6E6E9"/>
</g>
</svg>
