<svg width="20" height="20" viewBox="0 0 20 20" fill="none" xmlns="http://www.w3.org/2000/svg">
<g id="vuesax/bold/trash">
<g id="trash">
<path id="Vector" d="M17.5574 4.35866C16.2157 4.22533 14.8741 4.12533 13.5241 4.05033V4.04199L13.3407 2.95866C13.2157 2.19199 13.0324 1.04199 11.0824 1.04199H8.89907C6.95741 1.04199 6.77407 2.14199 6.64074 2.95033L6.46574 4.01699C5.69074 4.06699 4.91574 4.11699 4.14074 4.19199L2.44074 4.35866C2.09074 4.39199 1.84074 4.70033 1.87407 5.04199C1.90741 5.38366 2.20741 5.63366 2.55741 5.60033L4.25741 5.43366C8.62407 5.00033 13.0241 5.16699 17.4407 5.60866C17.4657 5.60866 17.4824 5.60866 17.5074 5.60866C17.8241 5.60866 18.0991 5.36699 18.1324 5.04199C18.1574 4.70033 17.9074 4.39199 17.5574 4.35866Z" fill="#EF3340"/>
<path id="Vector_2" d="M16.0245 6.78301C15.8245 6.57467 15.5495 6.45801 15.2661 6.45801H4.7328C4.44947 6.45801 4.16613 6.57467 3.97447 6.78301C3.7828 6.99134 3.67447 7.27467 3.69113 7.56634L4.2078 16.1163C4.29947 17.383 4.41613 18.9663 7.32447 18.9663H12.6745C15.5828 18.9663 15.6995 17.3913 15.7911 16.1163L16.3078 7.57467C16.3245 7.27467 16.2161 6.99134 16.0245 6.78301ZM11.3828 14.7913H8.6078C8.26613 14.7913 7.9828 14.508 7.9828 14.1663C7.9828 13.8247 8.26613 13.5413 8.6078 13.5413H11.3828C11.7245 13.5413 12.0078 13.8247 12.0078 14.1663C12.0078 14.508 11.7245 14.7913 11.3828 14.7913ZM12.0828 11.458H7.91613C7.57447 11.458 7.29113 11.1747 7.29113 10.833C7.29113 10.4913 7.57447 10.208 7.91613 10.208H12.0828C12.4245 10.208 12.7078 10.4913 12.7078 10.833C12.7078 11.1747 12.4245 11.458 12.0828 11.458Z" fill="#EF3340"/>
</g>
</g>
</svg>
