<svg width="20" height="20" viewBox="0 0 20 20" fill="none" xmlns="http://www.w3.org/2000/svg">
<g id="vuesax/bold/eye">
<path id="Vector" d="M17.7082 7.62409C15.7832 4.59909 12.9665 2.85742 9.99984 2.85742C8.5165 2.85742 7.07484 3.29076 5.75817 4.09909C4.4415 4.91576 3.25817 6.10742 2.2915 7.62409C1.45817 8.93242 1.45817 11.0574 2.2915 12.3658C4.2165 15.3991 7.03317 17.1324 9.99984 17.1324C11.4832 17.1324 12.9248 16.6991 14.2415 15.8908C15.5582 15.0741 16.7415 13.8824 17.7082 12.3658C18.5415 11.0658 18.5415 8.93242 17.7082 7.62409ZM9.99984 13.3658C8.13317 13.3658 6.63317 11.8574 6.63317 9.99909C6.63317 8.14076 8.13317 6.63242 9.99984 6.63242C11.8665 6.63242 13.3665 8.14076 13.3665 9.99909C13.3665 11.8574 11.8665 13.3658 9.99984 13.3658Z" fill="#050123" fill-opacity="0.5"/>
<path id="Vector_2" d="M10 7.61719C8.69167 7.61719 7.625 8.68385 7.625 10.0005C7.625 11.3089 8.69167 12.3755 10 12.3755C11.3083 12.3755 12.3833 11.3089 12.3833 10.0005C12.3833 8.69219 11.3083 7.61719 10 7.61719Z" fill="#050123" fill-opacity="0.5"/>
</g>
</svg>
