<svg width="17" height="18" viewBox="0 0 17 18" fill="none" xmlns="http://www.w3.org/2000/svg">
<path id="Vector" d="M8.50088 1.25H8.50071C4.21545 1.25097 0.75 4.74307 0.75 9.04375C0.75 12.9297 3.58086 16.1552 7.2885 16.7408L8.15551 16.8778V16V11.0787V10.3287H7.40551H6.37948V9.79375H7.40726H8.15726V9.04375V7.49081C8.15726 6.75701 8.3717 6.28012 8.66189 5.988C8.95232 5.69565 9.40479 5.50153 10.0512 5.50153C10.3293 5.50153 10.6187 5.52195 10.8681 5.54706V5.87117H10.7353C10.1362 5.87117 9.62112 6.06551 9.27049 6.47397C8.93806 6.86122 8.84536 7.3352 8.84536 7.72179V9.04287V9.79287H9.59536H10.6631L10.5817 10.3279H9.59449H8.84449V11.0779V15.9991V16.8769L9.7115 16.7399C13.4191 16.1543 16.25 12.9288 16.25 9.04287C16.25 4.74328 12.7847 1.25 8.50088 1.25Z" stroke="#374AF3" stroke-width="1.5"/>
</svg>
