<svg width="18" height="18" viewBox="0 0 18 18" fill="none" xmlns="http://www.w3.org/2000/svg">
<path id="Vector" d="M11.279 1.26669L11.279 1.26675L11.4146 1.27164C11.4146 1.27164 11.4147 1.27165 11.4148 1.27165C11.5702 1.2772 11.7233 1.28408 11.9011 1.29207L11.9198 1.29292L11.9214 1.29299C12.7358 1.33126 13.3248 1.46243 13.8553 1.66804C14.4094 1.88141 14.8877 2.17769 15.3534 2.64276C15.7849 3.0675 16.1191 3.58082 16.333 4.14728C16.5381 4.67727 16.6689 5.26642 16.7071 6.07942L16.7072 6.08082C16.7155 6.26634 16.7227 6.42531 16.7285 6.58624L16.7286 6.58981L16.7286 6.58981L16.7328 6.72561L16.7329 6.73053L16.7329 6.73053C16.7455 7.24733 16.7509 7.76428 16.7492 8.28123L16.7499 8.80153L16.7499 8.80253L16.7499 9.7181C16.7517 10.2355 16.7462 10.7528 16.7336 11.27L16.7335 11.2749L16.7335 11.2749L16.7293 11.4107L16.7292 11.4143C16.7236 11.5698 16.7167 11.723 16.7087 11.9009L16.7079 11.9196L16.7078 11.9211C16.6695 12.7356 16.537 13.3234 16.3334 13.8516C16.1204 14.4181 15.7867 14.9314 15.3553 15.3559C14.9308 15.7861 14.4182 16.1193 13.8527 16.3328C13.3228 16.5378 12.7344 16.6687 11.9214 16.7069L11.9198 16.7069L11.9015 16.7078C11.7234 16.7158 11.5702 16.7226 11.4146 16.7282L11.411 16.7283L11.2752 16.7325L11.2703 16.7327C10.7532 16.7453 10.236 16.7507 9.71885 16.749L9.19856 16.7497L9.19756 16.7497L8.28269 16.7497C7.76533 16.7514 7.24796 16.746 6.73075 16.7334L6.72586 16.7332L6.72586 16.7332L6.59007 16.729L6.58608 16.7289C6.41697 16.7228 6.24791 16.7156 6.07889 16.7075M11.279 1.26669L6.07889 16.7075M11.279 1.26669L11.2699 1.26648C10.7529 1.2541 10.2357 1.24889 9.71849 1.25086M11.279 1.26669L8.2824 1.25016L9.71849 1.25086M6.07889 16.7075C5.26458 16.6692 4.67709 16.5366 4.14859 16.3332M6.07889 16.7075C6.07914 16.7075 6.0794 16.7075 6.07966 16.7076L4.14859 16.3332M4.14859 16.3332C3.58252 16.12 3.06955 15.7864 2.64523 15.3554C2.21444 14.931 1.88079 14.4183 1.66728 13.8525C1.46225 13.3226 1.33144 12.7342 1.29323 11.9211L1.29323 11.9211C1.28532 11.7526 1.27822 11.5841 1.27193 11.4155L1.2716 11.4069L1.27165 11.4069L1.26815 11.2711L1.26814 11.2707C1.25507 10.7534 1.24916 10.236 1.2504 9.71859V8.28178C1.24844 7.76476 1.25364 7.24773 1.26602 6.73085L1.26624 6.72175L1.26629 6.72176L1.27118 6.58624C1.27118 6.58614 1.27119 6.58605 1.27119 6.58596C1.27694 6.42513 1.2841 6.26623 1.29246 6.08082L1.29253 6.07945C1.33075 5.26534 1.46164 4.67774 1.66655 4.14746C1.88024 3.58158 2.21458 3.06904 2.64633 2.64544C3.07007 2.21459 3.58226 1.88079 4.14755 1.66707C4.67787 1.46213 5.2655 1.33121 6.07969 1.29299L6.08329 1.29282L6.08329 1.29282L6.58167 1.27183L6.59392 1.27131L6.59392 1.27141L6.72972 1.26791L6.7301 1.2679C7.24718 1.25483 7.76443 1.24892 8.28168 1.25016L8.28096 1.25016L4.14859 16.3332ZM9.71849 1.25086C9.71795 1.25086 9.7174 1.25086 9.71686 1.25087L9.71974 2.00086L9.72011 1.25086L9.71849 1.25086ZM12.695 5.20098C12.7208 5.20515 12.7447 5.21731 12.7634 5.23598C12.7868 5.25942 12.8 5.2912 12.8 5.32435C12.8 5.35749 12.7868 5.38928 12.7634 5.41271C12.7435 5.43258 12.7177 5.44507 12.6901 5.44841C12.6634 5.4441 12.6388 5.43127 12.6199 5.41163C12.5976 5.38835 12.5851 5.35733 12.5851 5.32505C12.5851 5.29277 12.5976 5.26174 12.6199 5.23847C12.6399 5.21762 12.6665 5.20443 12.695 5.20098Z" stroke="#374AF3" stroke-width="1.5"/>
</svg>
