<svg width="24" height="24" viewBox="0 0 24 24" fill="none" xmlns="http://www.w3.org/2000/svg">
<g id="vuesax/bold/document-download">
<g id="document-download">
<path id="Vector" d="M17.9722 16.1365C17.163 16.1365 16.4389 16.4378 15.8852 16.9096L8.29305 12.743C8.34629 12.512 8.38889 12.2811 8.38889 12.0402C8.38889 11.7992 8.34629 11.5683 8.29305 11.3374L15.8 7.21084C16.375 7.71285 17.131 8.0241 17.9722 8.0241C19.7398 8.0241 21.1667 6.67872 21.1667 5.01205C21.1667 3.34538 19.7398 2 17.9722 2C16.2046 2 14.7778 3.34538 14.7778 5.01205C14.7778 5.25301 14.8204 5.48394 14.8736 5.71486L7.36667 9.84137C6.79167 9.33936 6.03565 9.02811 5.19444 9.02811C3.42685 9.02811 2 10.3735 2 12.0402C2 13.7068 3.42685 15.0522 5.19444 15.0522C6.03565 15.0522 6.79167 14.741 7.36667 14.239L14.9481 18.4157C14.8949 18.6265 14.863 18.8474 14.863 19.0683C14.863 20.6847 16.2579 22 17.9722 22C19.6866 22 21.0815 20.6847 21.0815 19.0683C21.0815 17.4518 19.6866 16.1365 17.9722 16.1365Z" fill="#050123" fill-opacity="0.5"/>
</g>
</g>
</svg>
