<svg width="48" height="48" viewBox="0 0 48 48" fill="none" xmlns="http://www.w3.org/2000/svg">
<g id="Group 427319524">
<rect id="Rectangle 309" width="48" height="48" rx="6" fill="#16ABFF" fill-opacity="0.1"/>
<path id="Icon (Stroke)" fill-rule="evenodd" clip-rule="evenodd" d="M23.3759 15.2766C18.9028 15.2766 15.2766 18.9028 15.2766 23.3759C15.2766 27.849 18.9028 31.4752 23.3759 31.4752C25.5836 31.4752 27.585 30.5919 29.0459 29.1594C30.5451 27.6895 31.4752 25.6413 31.4752 23.3759C31.4752 18.9028 27.849 15.2766 23.3759 15.2766ZM30.3895 29.5983C31.8592 27.9429 32.7518 25.7636 32.7518 23.3759C32.7518 18.1977 28.554 14 23.3759 14C18.1977 14 14 18.1977 14 23.3759C14 28.554 18.1977 32.7518 23.3759 32.7518C25.7067 32.7518 27.8389 31.9012 29.479 30.4936L32.9179 33.8205C33.1713 34.0656 33.5753 34.0589 33.8205 33.8055C34.0656 33.5521 34.0589 33.1481 33.8055 32.9029L30.3895 29.5983Z" fill="#16ABFF"/>
</g>
</svg>
