<svg width="242" height="76" viewBox="0 0 242 76" fill="none" xmlns="http://www.w3.org/2000/svg">
<g id="Group 36957">
<g id="Group 36953">
<g id="Ellipse 3" filter="url(#filter0_d_1243_43569)">
<circle cx="38" cy="38" r="18" fill="white"/>
</g>
<path id="Vector" d="M38.987 28.4011C39.6875 28.3984 40.388 28.4054 41.0883 28.4222L41.2746 28.4289C41.4896 28.4366 41.7018 28.4462 41.9581 28.4577C42.9795 28.5057 43.6764 28.667 44.2879 28.9041C44.9215 29.1479 45.4552 29.4782 45.989 30.0119C46.477 30.4915 46.8547 31.0717 47.0958 31.712C47.3329 32.3235 47.4942 33.0214 47.5422 34.0428C47.5537 34.2982 47.5633 34.5113 47.571 34.7263L47.5768 34.9125C47.5938 35.6125 47.6012 36.3127 47.5988 37.013L47.5998 37.7291V38.9866C47.6022 39.6872 47.5948 40.3877 47.5777 41.088L47.572 41.2742C47.5643 41.4893 47.5547 41.7014 47.5432 41.9577C47.4952 42.9791 47.332 43.6761 47.0958 44.2876C46.8555 44.9286 46.4777 45.5092 45.989 45.9886C45.509 46.4766 44.9285 46.8543 44.2879 47.0955C43.6764 47.3326 42.9795 47.4939 41.9581 47.5419C41.7018 47.5534 41.4896 47.563 41.2746 47.5707L41.0883 47.5764C40.388 47.5935 39.6875 47.6009 38.987 47.5985L38.2708 47.5995H37.0142C36.3137 47.6018 35.6132 47.5945 34.9129 47.5774L34.7266 47.5716C34.4988 47.5634 34.2709 47.5538 34.0431 47.5428C33.0217 47.4948 32.3248 47.3316 31.7123 47.0955C31.0717 46.8549 30.4915 46.4771 30.0122 45.9886C29.5237 45.5089 29.1456 44.9284 28.9044 44.2876C28.6673 43.6761 28.5061 42.9791 28.4581 41.9577C28.4474 41.73 28.4378 41.5021 28.4293 41.2742L28.4245 41.088C28.4068 40.3877 28.3988 39.6872 28.4005 38.9866V37.013C28.3978 36.3128 28.4048 35.6125 28.4216 34.9125L28.4283 34.7263C28.436 34.5113 28.4456 34.2982 28.4571 34.0428C28.5051 33.0204 28.6664 32.3245 28.9035 31.712C29.1448 31.0713 29.5236 30.4914 30.0132 30.0129C30.4921 29.524 31.072 29.1456 31.7123 28.9041C32.3248 28.667 33.0208 28.5057 34.0431 28.4577L34.7266 28.4289L34.9129 28.4241C35.6129 28.4064 36.3131 28.3984 37.0133 28.4001L38.987 28.4011ZM38.0001 33.2009C37.3642 33.1919 36.7327 33.3094 36.1426 33.5466C35.5524 33.7837 35.0153 34.1358 34.5623 34.5824C34.1094 35.0289 33.7498 35.561 33.5043 36.1478C33.2588 36.7345 33.1324 37.3642 33.1324 38.0003C33.1324 38.6363 33.2588 39.266 33.5043 39.8528C33.7498 40.4395 34.1094 40.9716 34.5623 41.4182C35.0153 41.8647 35.5524 42.2168 36.1426 42.454C36.7327 42.6911 37.3642 42.8086 38.0001 42.7996C39.2731 42.7996 40.494 42.2939 41.3941 41.3938C42.2943 40.4937 42.8 39.2728 42.8 37.9998C42.8 36.7268 42.2943 35.5059 41.3941 34.6058C40.494 33.7057 39.2731 33.2009 38.0001 33.2009ZM38.0001 35.1209C38.3827 35.1138 38.7628 35.1831 39.1183 35.3246C39.4738 35.4661 39.7975 35.677 40.0706 35.945C40.3436 36.2131 40.5605 36.5328 40.7086 36.8856C40.8567 37.2384 40.933 37.6172 40.9331 37.9998C40.9332 38.3824 40.857 38.7612 40.709 39.114C40.561 39.4669 40.3442 39.7867 40.0713 40.0548C39.7983 40.323 39.4746 40.534 39.1192 40.6756C38.7637 40.8172 38.3836 40.8866 38.0011 40.8797C37.2373 40.8797 36.5048 40.5763 35.9647 40.0362C35.4246 39.4961 35.1212 38.7636 35.1212 37.9998C35.1212 37.236 35.4246 36.5035 35.9647 35.9634C36.5048 35.4233 37.2373 35.1199 38.0011 35.1199L38.0001 35.1209ZM43.04 31.761C42.7303 31.7734 42.4374 31.9051 42.2226 32.1286C42.0079 32.3521 41.888 32.65 41.888 32.96C41.888 33.2699 42.0079 33.5678 42.2226 33.7913C42.4374 34.0148 42.7303 34.1466 43.04 34.159C43.3582 34.159 43.6634 34.0325 43.8885 33.8075C44.1135 33.5825 44.2399 33.2773 44.2399 32.959C44.2399 32.6408 44.1135 32.3355 43.8885 32.1105C43.6634 31.8855 43.3582 31.759 43.04 31.759V31.761Z" fill="#374AF3"/>
</g>
<g id="Group 36954">
<circle id="Ellipse 3_2" cx="93.2002" cy="38" r="18" fill="#374AF3"/>
<path id="Vector_2" d="M102.8 38.0587C102.8 32.7242 98.5022 28.3999 93.2013 28.3999C87.898 28.4011 83.6001 32.7242 83.6001 38.0599C83.6001 42.8797 87.1109 46.8752 91.6991 47.5999V40.8507H89.2634V38.0599H91.7015V35.9302C91.7015 33.5101 93.1353 32.1734 95.3274 32.1734C96.3785 32.1734 97.4764 32.3618 97.4764 32.3618V34.7375H96.2657C95.0743 34.7375 94.7023 35.4826 94.7023 36.2469V38.0587H97.3636L96.9388 40.8495H94.7011V47.5987C99.2893 46.874 102.8 42.8785 102.8 38.0587Z" fill="white"/>
</g>
<g id="Group 36955">
<g id="Ellipse 3_3" filter="url(#filter1_d_1243_43569)">
<circle cx="148.4" cy="38" r="18" fill="white"/>
</g>
<path id="Vector_3" d="M158.775 31.1291L155.752 45.386C155.524 46.392 154.929 46.6425 154.084 46.1688L149.478 42.7743L147.255 44.9123C147.009 45.1585 146.804 45.3638 146.329 45.3638L146.661 40.6728L155.198 32.9588C155.569 32.6282 155.117 32.4443 154.621 32.7756L144.067 39.4214L139.523 37.9989C138.535 37.6905 138.517 37.0108 139.729 36.5364L157.501 29.6895C158.324 29.3811 159.044 29.872 158.775 31.1291Z" fill="#374AF3"/>
</g>
<g id="Group 36956">
<g id="Ellipse 3_4" filter="url(#filter2_d_1243_43569)">
<circle cx="203.6" cy="38" r="18" fill="white"/>
</g>
<path id="Vector_4" d="M201.2 41.6001L207.428 38.0001L201.2 34.4001V41.6001ZM215.072 32.2041C215.228 32.7681 215.336 33.5241 215.408 34.4841C215.492 35.4441 215.528 36.2721 215.528 36.9921L215.6 38.0001C215.6 40.6281 215.408 42.5601 215.072 43.7961C214.772 44.8761 214.076 45.5721 212.996 45.8721C212.432 46.0281 211.4 46.1361 209.816 46.2081C208.256 46.2921 206.828 46.3281 205.508 46.3281L203.6 46.4001C198.572 46.4001 195.44 46.2081 194.204 45.8721C193.124 45.5721 192.428 44.8761 192.128 43.7961C191.972 43.2321 191.864 42.4761 191.792 41.5161C191.708 40.5561 191.672 39.7281 191.672 39.0081L191.6 38.0001C191.6 35.3721 191.792 33.4401 192.128 32.2041C192.428 31.1241 193.124 30.4281 194.204 30.1281C194.768 29.9721 195.8 29.8641 197.384 29.7921C198.944 29.7081 200.372 29.6721 201.692 29.6721L203.6 29.6001C208.628 29.6001 211.76 29.7921 212.996 30.1281C214.076 30.4281 214.772 31.1241 215.072 32.2041Z" fill="#374AF3"/>
</g>
</g>
<defs>
<filter id="filter0_d_1243_43569" x="0" y="0" width="76" height="76" filterUnits="userSpaceOnUse" color-interpolation-filters="sRGB">
<feFlood flood-opacity="0" result="BackgroundImageFix"/>
<feColorMatrix in="SourceAlpha" type="matrix" values="0 0 0 0 0 0 0 0 0 0 0 0 0 0 0 0 0 0 127 0" result="hardAlpha"/>
<feOffset/>
<feGaussianBlur stdDeviation="10"/>
<feComposite in2="hardAlpha" operator="out"/>
<feColorMatrix type="matrix" values="0 0 0 0 0.215686 0 0 0 0 0.290196 0 0 0 0 0.952941 0 0 0 0.1 0"/>
<feBlend mode="normal" in2="BackgroundImageFix" result="effect1_dropShadow_1243_43569"/>
<feBlend mode="normal" in="SourceGraphic" in2="effect1_dropShadow_1243_43569" result="shape"/>
</filter>
<filter id="filter1_d_1243_43569" x="110.4" y="0" width="76" height="76" filterUnits="userSpaceOnUse" color-interpolation-filters="sRGB">
<feFlood flood-opacity="0" result="BackgroundImageFix"/>
<feColorMatrix in="SourceAlpha" type="matrix" values="0 0 0 0 0 0 0 0 0 0 0 0 0 0 0 0 0 0 127 0" result="hardAlpha"/>
<feOffset/>
<feGaussianBlur stdDeviation="10"/>
<feComposite in2="hardAlpha" operator="out"/>
<feColorMatrix type="matrix" values="0 0 0 0 0.215686 0 0 0 0 0.290196 0 0 0 0 0.952941 0 0 0 0.1 0"/>
<feBlend mode="normal" in2="BackgroundImageFix" result="effect1_dropShadow_1243_43569"/>
<feBlend mode="normal" in="SourceGraphic" in2="effect1_dropShadow_1243_43569" result="shape"/>
</filter>
<filter id="filter2_d_1243_43569" x="165.6" y="0" width="76" height="76" filterUnits="userSpaceOnUse" color-interpolation-filters="sRGB">
<feFlood flood-opacity="0" result="BackgroundImageFix"/>
<feColorMatrix in="SourceAlpha" type="matrix" values="0 0 0 0 0 0 0 0 0 0 0 0 0 0 0 0 0 0 127 0" result="hardAlpha"/>
<feOffset/>
<feGaussianBlur stdDeviation="10"/>
<feComposite in2="hardAlpha" operator="out"/>
<feColorMatrix type="matrix" values="0 0 0 0 0.215686 0 0 0 0 0.290196 0 0 0 0 0.952941 0 0 0 0.1 0"/>
<feBlend mode="normal" in2="BackgroundImageFix" result="effect1_dropShadow_1243_43569"/>
<feBlend mode="normal" in="SourceGraphic" in2="effect1_dropShadow_1243_43569" result="shape"/>
</filter>
</defs>
</svg>
